# Blender 4.4.0
# www.blender.org
mtllib Flower1.mtl
o Plane
v 0.000000 2.276001 -2.799866
v -0.604668 1.971278 -2.518002
v -1.000000 1.369251 -1.751605
v -1.137770 1.091353 -1.120733
v -1.000000 0.774661 -0.510618
v -0.542856 0.321556 0.031402
v 0.542856 0.321557 0.031402
v 1.000000 0.774662 -0.510618
v 1.137770 1.091354 -1.120733
v 1.000000 1.369251 -1.751606
v 0.604668 1.971278 -2.518002
v 0.000000 0.087798 -0.085286
v 0.000000 0.390165 -0.702552
v 0.000000 0.677719 -1.327212
v 0.000000 1.082077 -1.941804
v 0.000000 1.755214 -2.661104
v 0.000000 2.250255 -2.896495
v -0.638950 1.915738 -2.593765
v -1.035207 1.294032 -1.807305
v -1.174700 1.008739 -1.163289
v -1.039314 0.690662 -0.548014
v -0.583711 0.238559 -0.006574
v 0.583711 0.238559 -0.006575
v 1.039314 0.690662 -0.548014
v 1.174700 1.008739 -1.163289
v 1.035207 1.294032 -1.807306
v 0.638950 1.915738 -2.593765
v -0.000000 -0.003135 -0.126894
v -0.000000 0.298903 -0.743432
v -0.000000 0.588803 -1.372970
v -0.000000 1.003003 -2.003019
v -0.000000 1.702780 -2.746255
vn -0.0000 0.9653 0.2613
vn -0.3553 0.8734 0.3330
vn -0.4269 0.8362 0.3443
vn -0.4534 0.7951 0.4027
vn -0.3692 0.6782 0.6354
vn -0.0674 0.3559 0.9321
vn 0.0674 0.3559 0.9321
vn 0.3692 0.6782 0.6354
vn 0.4534 0.7951 0.4027
vn 0.4269 0.8362 0.3443
vn 0.3553 0.8734 0.3330
vn -0.0000 0.1862 0.9825
vn -0.0000 0.9126 0.4088
vn -0.0000 0.8892 0.4576
vn -0.0000 0.7907 0.6122
vn -0.0000 0.5243 0.8515
vn -0.0000 0.5159 -0.8566
vn -0.7627 0.0921 -0.6402
vn -0.8707 -0.2362 -0.4315
vn -0.9357 -0.3084 -0.1714
vn -0.8895 -0.4362 0.1364
vn -0.5713 -0.6741 0.4682
vn 0.5713 -0.6741 0.4682
vn 0.8895 -0.4362 0.1364
vn 0.9357 -0.3084 -0.1714
vn 0.8707 -0.2362 -0.4315
vn 0.7627 0.0921 -0.6402
vn -0.0000 -0.9725 0.2330
vn -0.0000 -0.9116 -0.4110
vn -0.0000 -0.8890 -0.4580
vn -0.0000 -0.7908 -0.6120
vn -0.0000 -0.5247 -0.8513
vt 0.500000 0.857143
vt 0.000000 0.000000
vt 0.000000 0.857143
vt 0.500000 0.285714
vt 1.000000 0.285714
vt 1.000000 0.428571
vt 0.500000 0.428571
vt 1.000000 0.571429
vt 0.500000 0.571429
vt 1.000000 0.714286
vt 0.500000 0.714286
vt 1.000000 0.857143
vt 0.000000 0.714286
vt 0.000000 0.571429
vt 0.000000 0.428571
vt 0.000000 0.285714
s 1
f 16/1/16 1/2/1 2/3/2
f 12/4/12 7/5/7 8/6/8 13/7/13
f 13/7/13 8/6/8 9/8/9 14/9/14
f 14/9/14 9/8/9 10/10/10 15/11/15
f 15/11/15 10/10/10 11/12/11 16/1/16
f 3/13/3 15/11/15 16/1/16 2/3/2
f 4/14/4 14/9/14 15/11/15 3/13/3
f 5/15/5 13/7/13 14/9/14 4/14/4
f 6/16/6 12/4/12 13/7/13 5/15/5
f 11/12/11 1/2/1 16/1/16
f 32/1/32 18/3/18 17/2/17
f 28/4/28 29/7/29 24/6/24 23/5/23
f 29/7/29 30/9/30 25/8/25 24/6/24
f 30/9/30 31/11/31 26/10/26 25/8/25
f 31/11/31 32/1/32 27/12/27 26/10/26
f 19/13/19 18/3/18 32/1/32 31/11/31
f 20/14/20 19/13/19 31/11/31 30/9/30
f 21/15/21 20/14/20 30/9/30 29/7/29
f 22/16/22 21/15/21 29/7/29 28/4/28
f 27/12/27 32/1/32 17/2/17
f 1/2/1 11/12/11 27/12/27 17/2/17
f 3/13/3 2/3/2 18/3/18 19/13/19
f 4/14/4 3/13/3 19/13/19 20/14/20
f 5/15/5 4/14/4 20/14/20 21/15/21
f 6/16/6 5/15/5 21/15/21 22/16/22
f 8/6/8 7/5/7 23/5/23 24/6/24
f 9/8/9 8/6/8 24/6/24 25/8/25
f 10/10/10 9/8/9 25/8/25 26/10/26
f 11/12/11 10/10/10 26/10/26 27/12/27
f 12/4/12 6/16/6 22/16/22 28/4/28
f 2/3/2 1/2/1 17/2/17 18/3/18
f 7/5/7 12/4/12 28/4/28 23/5/23
o Plane.001
v 2.643345 2.330100 -0.369741
v 2.294739 2.008588 -0.929233
v 1.486094 1.401076 -1.217521
v 0.842362 1.124595 -1.275621
v 0.249499 0.818045 -1.061019
v -0.241135 0.384846 -0.532163
v -0.121158 0.419875 0.546329
v 0.470510 0.882573 0.925685
v 1.093822 1.198014 0.984791
v 1.707106 1.465604 0.769182
v 2.428378 2.047606 0.272063
v -0.066444 0.167678 0.001945
v 0.548674 0.464292 -0.076118
v 1.171059 0.746035 -0.154506
v 1.784072 1.144607 -0.235647
v 2.502609 1.810860 -0.337220
v 2.739241 2.303494 -0.379545
v 2.365947 1.951288 -0.969805
v 1.537153 1.324259 -1.256149
v 0.880128 1.040451 -1.314266
v 0.281865 0.732485 -1.101417
v -0.208357 0.300233 -0.574190
v -0.079350 0.337899 0.585470
v 0.511565 0.799551 0.963392
v 1.139750 1.116252 1.019515
v 1.765946 1.391059 0.800501
v 2.507163 1.992519 0.299599
v -0.025585 0.076420 0.000364
v 0.588807 0.372711 -0.077608
v 1.216053 0.656754 -0.156612
v 1.844482 1.065024 -0.239782
v 2.586953 1.757685 -0.344876
vn -0.2545 0.9671 -0.0031
vn -0.3655 0.8645 -0.3451
vn -0.3849 0.8251 -0.4137
vn -0.4460 0.7837 -0.4323
vn -0.6686 0.6717 -0.3191
vn -0.9319 0.3620 0.0241
vn -0.9170 0.3663 0.1579
vn -0.5870 0.6955 0.4144
vn -0.3458 0.8130 0.4685
vn -0.2905 0.8526 0.4344
vn -0.2870 0.8874 0.3608
vn -0.9755 0.1950 0.1022
vn -0.4013 0.9158 0.0149
vn -0.4499 0.8928 0.0211
vn -0.6041 0.7958 0.0414
vn -0.8434 0.5317 0.0766
vn 0.8542 0.5079 -0.1115
vn 0.5524 0.0616 -0.8313
vn 0.3313 -0.2681 -0.9046
vn 0.0653 -0.3400 -0.9382
vn -0.2362 -0.4634 -0.8541
vn -0.5321 -0.6880 -0.4936
vn -0.4058 -0.6511 0.6414
vn -0.0396 -0.4060 0.9130
vn 0.2721 -0.2796 0.9207
vn 0.5238 -0.2119 0.8251
vn 0.7210 0.1108 0.6840
vn -0.2368 -0.9698 0.0578
vn 0.4036 -0.9148 -0.0152
vn 0.4504 -0.8926 -0.0211
vn 0.6040 -0.7959 -0.0413
vn 0.8432 -0.5321 -0.0765
vt 0.500000 0.857143
vt 0.000000 0.000000
vt 0.000000 0.857143
vt 0.500000 0.285714
vt 1.000000 0.285714
vt 1.000000 0.428571
vt 0.500000 0.428571
vt 1.000000 0.571429
vt 0.500000 0.571429
vt 1.000000 0.714286
vt 0.500000 0.714286
vt 1.000000 0.857143
vt 0.000000 0.714286
vt 0.000000 0.571429
vt 0.000000 0.428571
vt 0.000000 0.285714
s 1
f 48/17/48 33/18/33 34/19/34
f 44/20/44 39/21/39 40/22/40 45/23/45
f 45/23/45 40/22/40 41/24/41 46/25/46
f 46/25/46 41/24/41 42/26/42 47/27/47
f 47/27/47 42/26/42 43/28/43 48/17/48
f 35/29/35 47/27/47 48/17/48 34/19/34
f 36/30/36 46/25/46 47/27/47 35/29/35
f 37/31/37 45/23/45 46/25/46 36/30/36
f 38/32/38 44/20/44 45/23/45 37/31/37
f 43/28/43 33/18/33 48/17/48
f 64/17/64 50/19/50 49/18/49
f 60/20/60 61/23/61 56/22/56 55/21/55
f 61/23/61 62/25/62 57/24/57 56/22/56
f 62/25/62 63/27/63 58/26/58 57/24/57
f 63/27/63 64/17/64 59/28/59 58/26/58
f 51/29/51 50/19/50 64/17/64 63/27/63
f 52/30/52 51/29/51 63/27/63 62/25/62
f 53/31/53 52/30/52 62/25/62 61/23/61
f 54/32/54 53/31/53 61/23/61 60/20/60
f 59/28/59 64/17/64 49/18/49
f 33/18/33 43/28/43 59/28/59 49/18/49
f 35/29/35 34/19/34 50/19/50 51/29/51
f 36/30/36 35/29/35 51/29/51 52/30/52
f 37/31/37 36/30/36 52/30/52 53/31/53
f 38/32/38 37/31/37 53/31/53 54/32/54
f 40/22/40 39/21/39 55/21/55 56/22/56
f 41/24/41 40/22/40 56/22/56 57/24/57
f 42/26/42 41/24/41 57/24/57 58/26/58
f 43/28/43 42/26/42 58/26/58 59/28/59
f 44/20/44 38/32/38 54/32/54 60/20/60
f 34/19/34 33/18/33 49/18/49 50/19/50
f 39/21/39 44/20/44 60/20/60 55/21/55
o Plane.002
v 0.728967 1.855377 1.912540
v 0.991213 1.629720 1.531365
v 0.949971 1.203329 0.930230
v 0.806861 1.009278 0.499747
v 0.502550 0.794121 0.178456
v 0.024704 0.490075 0.011053
v -0.635585 0.514661 0.390644
v -0.713776 0.839411 0.877704
v -0.577038 1.060807 1.295331
v -0.266354 1.248619 1.629479
v 0.255740 1.657105 1.954178
v -0.269973 0.337653 0.273211
v -0.047275 0.545835 0.647105
v 0.177670 0.743581 1.025584
v 0.401758 1.023323 1.397261
v 0.668581 1.490942 1.831105
v 0.762162 1.836703 1.971493
v 1.037284 1.589503 1.565806
v 0.989142 1.149414 0.952252
v 0.842315 0.950220 0.513211
v 0.537618 0.734070 0.187953
v 0.060936 0.430688 0.020360
v -0.649047 0.457125 0.428519
v -0.726526 0.781141 0.914692
v -0.586503 1.003422 1.334618
v -0.270007 1.196299 1.676120
v 0.260113 1.618441 2.012591
v -0.257500 0.273602 0.299057
v -0.035064 0.481558 0.672510
v 0.191641 0.680918 1.053944
v 0.421357 0.967467 1.434971
v 0.697156 1.453620 1.883228
vn -0.0988 0.9671 -0.2345
vn 0.1703 0.8645 -0.4729
vn 0.2255 0.8251 -0.5181
vn 0.2181 0.7837 -0.5816
vn 0.0254 0.6717 -0.7404
vn -0.3944 0.3620 -0.8447
vn -0.5111 0.3663 -0.7776
vn -0.6144 0.6955 -0.3726
vn -0.5677 0.8130 -0.1298
vn -0.5142 0.8526 -0.0928
vn -0.4454 0.8874 -0.1190
vn -0.4834 0.1950 -0.8534
vn -0.1740 0.9158 -0.3620
vn -0.1991 0.8928 -0.4041
vn -0.2792 0.7958 -0.5373
vn -0.4071 0.5317 -0.7426
vn 0.4435 0.5079 0.7385
vn 0.9828 0.0616 0.1744
vn 0.9617 -0.2681 -0.0577
vn 0.8861 -0.3400 -0.3149
vn 0.6886 -0.4634 -0.5577
vn 0.2399 -0.6880 -0.6850
vn -0.7501 -0.6511 -0.1158
vn -0.8528 -0.4060 0.3284
vn -0.7354 -0.2796 0.6173
vn -0.5472 -0.2119 0.8098
vn -0.3390 0.1108 0.9342
vn -0.1476 -0.9698 -0.1940
vn 0.1751 -0.9148 0.3639
vn 0.1993 -0.8926 0.4044
vn 0.2792 -0.7959 0.5372
vn 0.4070 -0.5321 0.7424
vt 0.500000 0.857143
vt 0.000000 0.000000
vt 0.000000 0.857143
vt 0.500000 0.285714
vt 1.000000 0.285714
vt 1.000000 0.428571
vt 0.500000 0.428571
vt 1.000000 0.571429
vt 0.500000 0.571429
vt 1.000000 0.714286
vt 0.500000 0.714286
vt 1.000000 0.857143
vt 0.000000 0.714286
vt 0.000000 0.571429
vt 0.000000 0.428571
vt 0.000000 0.285714
s 1
f 80/33/80 65/34/65 66/35/66
f 76/36/76 71/37/71 72/38/72 77/39/77
f 77/39/77 72/38/72 73/40/73 78/41/78
f 78/41/78 73/40/73 74/42/74 79/43/79
f 79/43/79 74/42/74 75/44/75 80/33/80
f 67/45/67 79/43/79 80/33/80 66/35/66
f 68/46/68 78/41/78 79/43/79 67/45/67
f 69/47/69 77/39/77 78/41/78 68/46/68
f 70/48/70 76/36/76 77/39/77 69/47/69
f 75/44/75 65/34/65 80/33/80
f 96/33/96 82/35/82 81/34/81
f 92/36/92 93/39/93 88/38/88 87/37/87
f 93/39/93 94/41/94 89/40/89 88/38/88
f 94/41/94 95/43/95 90/42/90 89/40/89
f 95/43/95 96/33/96 91/44/91 90/42/90
f 83/45/83 82/35/82 96/33/96 95/43/95
f 84/46/84 83/45/83 95/43/95 94/41/94
f 85/47/85 84/46/84 94/41/94 93/39/93
f 86/48/86 85/47/85 93/39/93 92/36/92
f 91/44/91 96/33/96 81/34/81
f 65/34/65 75/44/75 91/44/91 81/34/81
f 67/45/67 66/35/66 82/35/82 83/45/83
f 68/46/68 67/45/67 83/45/83 84/46/84
f 69/47/69 68/46/68 84/46/84 85/47/85
f 70/48/70 69/47/69 85/47/85 86/48/86
f 72/38/72 71/37/71 87/37/87 88/38/88
f 73/40/73 72/38/72 88/38/88 89/40/89
f 74/42/74 73/40/73 89/40/89 90/42/90
f 75/44/75 74/42/74 90/42/90 91/44/91
f 76/36/76 70/48/70 86/48/86 92/36/92
f 66/35/66 65/34/65 81/34/81 82/35/82
f 71/37/71 76/36/76 92/36/92 87/37/87
o Plane.003
v -1.889977 3.222672 1.284371
v -1.467967 2.721613 1.731347
v -0.785632 1.811879 1.737538
v -0.231954 1.319589 1.567487
v 0.169836 0.842033 1.137159
v 0.323735 0.300409 0.422434
v -0.147041 0.491741 -0.635854
v -0.697385 1.194488 -0.812325
v -1.218653 1.720601 -0.650577
v -1.652854 2.164334 -0.211946
v -1.992347 2.934730 0.552558
v -0.099134 0.189841 -0.060596
v -0.572152 0.679037 0.238268
v -1.057050 1.155164 0.540054
v -1.493198 1.748310 0.841310
v -1.936276 2.647753 1.201025
v -1.988659 3.224214 1.328548
v -1.542391 2.680480 1.798139
v -0.847601 1.744567 1.795165
v -0.283426 1.240575 1.620397
v 0.123737 0.759683 1.189935
v 0.278101 0.218984 0.477018
v -0.228106 0.424715 -0.660917
v -0.777578 1.125994 -0.836192
v -1.302151 1.654603 -0.669663
v -1.745355 2.109431 -0.222954
v -2.096501 2.905681 0.552517
v -0.168540 0.108519 -0.044423
v -0.640991 0.597166 0.254089
v -1.129642 1.077114 0.558235
v -1.576870 1.684842 0.867056
v -2.033262 2.618570 1.238893
vn 0.5260 0.8466 -0.0809
vn 0.7016 0.6823 0.2054
vn 0.7285 0.6323 0.2638
vn 0.7766 0.5733 0.2612
vn 0.9068 0.4137 0.0810
vn 0.9409 0.0774 -0.3298
vn 0.8868 0.0993 -0.4513
vn 0.6107 0.5341 -0.5847
vn 0.4129 0.7211 -0.5563
vn 0.3861 0.7714 -0.5058
vn 0.4167 0.7981 -0.4352
vn 0.9044 -0.0862 -0.4179
vn 0.6366 0.7572 -0.1463
vn 0.6713 0.7218 -0.1681
vn 0.7738 0.5870 -0.2381
vn 0.8969 0.2699 -0.3502
vn -0.5771 0.7193 0.3868
vn -0.2169 0.1346 0.9669
vn -0.0962 -0.2506 0.9633
vn 0.1314 -0.3995 0.9073
vn 0.3382 -0.5957 0.7286
vn 0.4222 -0.8586 0.2907
vn -0.0360 -0.6724 -0.7393
vn -0.3752 -0.3057 -0.8751
vn -0.6190 -0.0945 -0.7797
vn -0.7944 0.0332 -0.6064
vn -0.8286 0.3832 -0.4082
vn -0.1025 -0.9859 -0.1326
vn -0.6383 -0.7556 0.1473
vn -0.6716 -0.7215 0.1683
vn -0.7737 -0.5871 0.2381
vn -0.8969 -0.2703 0.3501
vt 0.500000 0.857143
vt 0.000000 0.000000
vt 0.000000 0.857143
vt 0.500000 0.285714
vt 1.000000 0.285714
vt 1.000000 0.428571
vt 0.500000 0.428571
vt 1.000000 0.571429
vt 0.500000 0.571429
vt 1.000000 0.714286
vt 0.500000 0.714286
vt 1.000000 0.857143
vt 0.000000 0.714286
vt 0.000000 0.571429
vt 0.000000 0.428571
vt 0.000000 0.285714
s 1
f 112/49/112 97/50/97 98/51/98
f 108/52/108 103/53/103 104/54/104 109/55/109
f 109/55/109 104/54/104 105/56/105 110/57/110
f 110/57/110 105/56/105 106/58/106 111/59/111
f 111/59/111 106/58/106 107/60/107 112/49/112
f 99/61/99 111/59/111 112/49/112 98/51/98
f 100/62/100 110/57/110 111/59/111 99/61/99
f 101/63/101 109/55/109 110/57/110 100/62/100
f 102/64/102 108/52/108 109/55/109 101/63/101
f 107/60/107 97/50/97 112/49/112
f 128/49/128 114/51/114 113/50/113
f 124/52/124 125/55/125 120/54/120 119/53/119
f 125/55/125 126/57/126 121/56/121 120/54/120
f 126/57/126 127/59/127 122/58/122 121/56/121
f 127/59/127 128/49/128 123/60/123 122/58/122
f 115/61/115 114/51/114 128/49/128 127/59/127
f 116/62/116 115/61/115 127/59/127 126/57/126
f 117/63/117 116/62/116 126/57/126 125/55/125
f 118/64/118 117/63/117 125/55/125 124/52/124
f 123/60/123 128/49/128 113/50/113
f 97/50/97 107/60/107 123/60/123 113/50/113
f 99/61/99 98/51/98 114/51/114 115/61/115
f 100/62/100 99/61/99 115/61/115 116/62/116
f 101/63/101 100/62/100 116/62/116 117/63/117
f 102/64/102 101/63/101 117/63/117 118/64/118
f 104/54/104 103/53/103 119/53/119 120/54/120
f 105/56/105 104/54/104 120/54/120 121/56/121
f 106/58/106 105/56/105 121/56/121 122/58/122
f 107/60/107 106/58/106 122/58/122 123/60/123
f 108/52/108 102/64/102 118/64/118 124/52/124
f 98/51/98 97/50/97 113/50/113 114/51/114
f 103/53/103 108/52/108 124/52/124 119/53/119
o Plane.004
v -2.220572 2.035847 -1.450570
v -2.275775 1.805449 -0.834355
v -1.867992 1.295403 -0.148959
v -1.442777 1.057840 0.255003
v -0.913501 0.766218 0.436855
v -0.300976 0.329713 0.347491
v 0.177937 0.254179 -0.501053
v -0.031291 0.627077 -1.126258
v -0.439026 0.899529 -1.523460
v -0.985783 1.156261 -1.712072
v -1.742332 1.721315 -1.779518
v -0.160272 0.081748 -0.113805
v -0.634830 0.350903 -0.405601
v -1.115644 0.606739 -0.699743
v -1.584934 0.967434 -0.996715
v -2.127965 1.568968 -1.356744
v -2.297132 2.012397 -1.491692
v -2.352024 1.757721 -0.837600
v -1.929530 1.230149 -0.141383
v -1.495001 0.986117 0.270199
v -0.962773 0.693436 0.456282
v -0.351352 0.257935 0.367804
v 0.163604 0.176716 -0.544602
v -0.045880 0.548824 -1.168283
v -0.458669 0.822667 -1.565990
v -1.016261 1.086109 -1.759528
v -1.788336 1.668816 -1.836350
v -0.195720 -0.000007 -0.126534
v -0.669717 0.268855 -0.417988
v -1.154284 0.526778 -0.714433
v -1.635387 0.896252 -1.018853
v -2.196356 1.521609 -1.391127
vn 0.2609 0.9634 0.0615
vn 0.1461 0.8996 0.4116
vn 0.1196 0.8680 0.4819
vn 0.1560 0.8294 0.5364
vn 0.3959 0.7073 0.5857
vn 0.7911 0.3637 0.4917
vn 0.8572 0.3533 0.3747
vn 0.7578 0.6502 -0.0554
vn 0.6004 0.7593 -0.2510
vn 0.5380 0.8021 -0.2594
vn 0.4943 0.8447 -0.2054
vn 0.8622 0.1896 0.4697
vn 0.3876 0.9115 0.1376
vn 0.4293 0.8883 0.1632
vn 0.5605 0.7908 0.2459
vn 0.7598 0.5261 0.3820
vn -0.7283 0.5110 -0.4565
vn -0.9282 0.1482 0.3414
vn -0.8106 -0.1699 0.5604
vn -0.6185 -0.2359 0.7496
vn -0.3322 -0.3656 0.8695
vn 0.1046 -0.6261 0.7727
vn 0.6645 -0.7144 -0.2193
vn 0.5396 -0.5031 -0.6751
vn 0.2986 -0.3805 -0.8753
vn 0.0427 -0.3045 -0.9516
vn -0.1806 0.0303 -0.9831
vn 0.1693 -0.9686 0.1818
vn -0.3895 -0.9105 -0.1388
vn -0.4296 -0.8881 -0.1634
vn -0.5604 -0.7909 -0.2459
vn -0.7596 -0.5265 -0.3818
vt 0.500000 0.857143
vt 0.000000 0.000000
vt 0.000000 0.857143
vt 0.500000 0.285714
vt 1.000000 0.285714
vt 1.000000 0.428571
vt 0.500000 0.428571
vt 1.000000 0.571429
vt 0.500000 0.571429
vt 1.000000 0.714286
vt 0.500000 0.714286
vt 1.000000 0.857143
vt 0.000000 0.714286
vt 0.000000 0.571429
vt 0.000000 0.428571
vt 0.000000 0.285714
s 1
f 144/65/144 129/66/129 130/67/130
f 140/68/140 135/69/135 136/70/136 141/71/141
f 141/71/141 136/70/136 137/72/137 142/73/142
f 142/73/142 137/72/137 138/74/138 143/75/143
f 143/75/143 138/74/138 139/76/139 144/65/144
f 131/77/131 143/75/143 144/65/144 130/67/130
f 132/78/132 142/73/142 143/75/143 131/77/131
f 133/79/133 141/71/141 142/73/142 132/78/132
f 134/80/134 140/68/140 141/71/141 133/79/133
f 139/76/139 129/66/129 144/65/144
f 160/65/160 146/67/146 145/66/145
f 156/68/156 157/71/157 152/70/152 151/69/151
f 157/71/157 158/73/158 153/72/153 152/70/152
f 158/73/158 159/75/159 154/74/154 153/72/153
f 159/75/159 160/65/160 155/76/155 154/74/154
f 147/77/147 146/67/146 160/65/160 159/75/159
f 148/78/148 147/77/147 159/75/159 158/73/158
f 149/79/149 148/78/148 158/73/158 157/71/157
f 150/80/150 149/79/149 157/71/157 156/68/156
f 155/76/155 160/65/160 145/66/145
f 129/66/129 139/76/139 155/76/155 145/66/145
f 131/77/131 130/67/130 146/67/146 147/77/147
f 132/78/132 131/77/131 147/77/147 148/78/148
f 133/79/133 132/78/132 148/78/148 149/79/149
f 134/80/134 133/79/133 149/79/149 150/80/150
f 136/70/136 135/69/135 151/69/151 152/70/152
f 137/72/137 136/70/136 152/70/152 153/72/153
f 138/74/138 137/72/137 153/72/153 154/74/154
f 139/76/139 138/74/138 154/74/154 155/76/155
f 140/68/140 134/80/134 150/80/150 156/68/156
f 130/67/130 129/66/129 145/66/145 146/67/146
f 135/69/135 140/68/140 156/68/156 151/69/151
o Plane.005
v 0.892511 2.519507 -1.304005
v 0.500077 2.247049 -1.526077
v 0.041049 1.650060 -1.466016
v -0.277034 1.303569 -1.282268
v -0.435996 0.934488 -0.978759
v -0.374231 0.489036 -0.574903
v 0.188273 0.481831 -0.034767
v 0.600199 0.921218 0.016231
v 0.901917 1.288470 -0.150198
v 1.077244 1.636789 -0.471026
v 1.126630 2.239024 -0.924438
v 0.001715 0.358194 -0.405147
v 0.237859 0.718563 -0.646263
v 0.480002 1.070869 -0.893736
v 0.697349 1.499048 -1.114372
v 0.917334 2.134411 -1.334993
v 0.942051 2.526844 -1.355499
v 0.527241 2.229288 -1.590158
v 0.061754 1.613976 -1.524574
v -0.262087 1.259181 -1.336728
v -0.424454 0.887870 -1.032175
v -0.363389 0.443249 -0.629177
v 0.241450 0.435502 -0.048390
v 0.652478 0.874078 0.001932
v 0.955132 1.243592 -0.167913
v 1.134430 1.600238 -0.494553
v 1.189317 2.220808 -0.954409
v 0.036785 0.307732 -0.442342
v 0.272645 0.667694 -0.683169
v 0.516662 1.022819 -0.932555
v 0.739532 1.461548 -1.158802
v 0.966108 2.120900 -1.385967
vn -0.4010 0.8097 0.4284
vn -0.6819 0.7017 0.2065
vn -0.7320 0.6635 0.1548
vn -0.7792 0.6047 0.1649
vn -0.8417 0.4121 0.3490
vn -0.7396 0.0026 0.6730
vn -0.6424 0.0014 0.7663
vn -0.3091 0.4052 0.8604
vn -0.1251 0.5963 0.7929
vn -0.1162 0.6556 0.7461
vn -0.1694 0.6951 0.6987
vn -0.6832 -0.1745 0.7091
vn -0.4843 0.7082 0.5138
vn -0.5104 0.6689 0.5404
vn -0.5873 0.5221 0.6185
vn -0.6790 0.1881 0.7096
vn 0.4332 0.7863 -0.4406
vn -0.1561 0.3203 -0.9344
vn -0.2910 -0.0597 -0.9549
vn -0.4896 -0.2189 -0.8440
vn -0.6257 -0.4479 -0.6386
vn -0.5548 -0.7911 -0.2576
vn 0.2692 -0.8016 0.5337
vn 0.6574 -0.4644 0.5935
vn 0.8602 -0.2362 0.4520
vn 0.9650 -0.0758 0.2512
vn 0.9441 0.3062 0.1221
vn 0.0815 -0.9918 -0.0981
vn 0.4855 -0.7064 -0.5150
vn 0.5106 -0.6686 -0.5407
vn 0.5872 -0.5222 -0.6185
vn 0.6789 -0.1885 -0.7096
vt 0.500000 0.857143
vt 0.000000 0.000000
vt 0.000000 0.857143
vt 0.500000 0.285714
vt 1.000000 0.285714
vt 1.000000 0.428571
vt 0.500000 0.428571
vt 1.000000 0.571429
vt 0.500000 0.571429
vt 1.000000 0.714286
vt 0.500000 0.714286
vt 1.000000 0.857143
vt 0.000000 0.714286
vt 0.000000 0.571429
vt 0.000000 0.428571
vt 0.000000 0.285714
s 1
f 176/81/176 161/82/161 162/83/162
f 172/84/172 167/85/167 168/86/168 173/87/173
f 173/87/173 168/86/168 169/88/169 174/89/174
f 174/89/174 169/88/169 170/90/170 175/91/175
f 175/91/175 170/90/170 171/92/171 176/81/176
f 163/93/163 175/91/175 176/81/176 162/83/162
f 164/94/164 174/89/174 175/91/175 163/93/163
f 165/95/165 173/87/173 174/89/174 164/94/164
f 166/96/166 172/84/172 173/87/173 165/95/165
f 171/92/171 161/82/161 176/81/176
f 192/81/192 178/83/178 177/82/177
f 188/84/188 189/87/189 184/86/184 183/85/183
f 189/87/189 190/89/190 185/88/185 184/86/184
f 190/89/190 191/91/191 186/90/186 185/88/185
f 191/91/191 192/81/192 187/92/187 186/90/186
f 179/93/179 178/83/178 192/81/192 191/91/191
f 180/94/180 179/93/179 191/91/191 190/89/190
f 181/95/181 180/94/180 190/89/190 189/87/189
f 182/96/182 181/95/181 189/87/189 188/84/188
f 187/92/187 192/81/192 177/82/177
f 161/82/161 171/92/171 187/92/187 177/82/177
f 163/93/163 162/83/162 178/83/178 179/93/179
f 164/94/164 163/93/163 179/93/179 180/94/180
f 165/95/165 164/94/164 180/94/180 181/95/181
f 166/96/166 165/95/165 181/95/181 182/96/182
f 168/86/168 167/85/167 183/85/183 184/86/184
f 169/88/169 168/86/168 184/86/184 185/88/185
f 170/90/170 169/88/169 185/88/185 186/90/186
f 171/92/171 170/90/170 186/90/186 187/92/187
f 172/84/172 166/96/166 182/96/182 188/84/188
f 162/83/162 161/82/161 177/82/177 178/83/178
f 167/85/167 172/84/172 188/84/188 183/85/183
o Plane.006
v 0.330837 3.138958 1.570105
v 0.849364 2.786942 1.304543
v 1.110828 2.015633 0.766602
v 1.138664 1.567968 0.292813
v 0.924190 1.091116 -0.094419
v 0.444561 0.515592 -0.314830
v -0.538013 0.506284 -0.091849
v -0.885820 1.073970 0.316337
v -0.920711 1.548460 0.760159
v -0.699182 1.998487 1.177358
v -0.245090 2.776574 1.552914
v -0.005803 0.346544 -0.029873
v 0.086497 0.812141 0.396285
v 0.181390 1.267320 0.833434
v 0.264954 1.820526 1.224756
v 0.346626 2.641413 1.618912
v 0.351182 3.148437 1.660155
v 0.899195 2.763994 1.379398
v 1.159291 1.969012 0.830561
v 1.186798 1.510618 0.347649
v 0.973617 1.030886 -0.044000
v 0.495412 0.456435 -0.264555
v -0.561110 0.446427 -0.024793
v -0.907552 1.013066 0.382904
v -0.939421 1.490477 0.830164
v -0.714444 1.951263 1.255779
v -0.257311 2.753039 1.641850
v 0.009401 0.281348 0.034401
v 0.101590 0.746419 0.460048
v 0.197215 1.205239 0.900579
v 0.282908 1.772076 1.301847
v 0.366955 2.623958 1.707766
vn -0.1372 0.8097 -0.5706
vn 0.2027 0.7017 -0.6831
vn 0.2734 0.6635 -0.6964
vn 0.2910 0.6047 -0.7414
vn 0.1716 0.4121 -0.8948
vn -0.1551 0.0026 -0.9879
vn -0.2865 0.0014 -0.9581
vn -0.5484 0.4052 -0.7314
vn -0.5933 0.5963 -0.5407
vn -0.5591 0.6556 -0.5075
vn -0.4902 0.6951 -0.5258
vn -0.2163 -0.1745 -0.9606
vn -0.1626 0.7082 -0.6871
vn -0.1705 0.6689 -0.7235
vn -0.1935 0.5221 -0.8307
vn -0.2191 0.1881 -0.9574
vn 0.1296 0.7863 0.6041
vn 0.8662 0.3203 0.3837
vn 0.9575 -0.0597 0.2823
vn 0.9742 -0.2189 0.0555
vn 0.8775 -0.4479 -0.1712
vn 0.5203 -0.7911 -0.3216
vn -0.5938 -0.8016 -0.0688
vn -0.8572 -0.4644 0.2225
vn -0.8507 -0.2362 0.4696
vn -0.7406 -0.0758 0.6677
vn -0.6214 0.3062 0.7212
vn 0.0371 -0.9918 0.1221
vn 0.1630 -0.7064 0.6888
vn 0.1706 -0.6686 0.7238
vn 0.1934 -0.5222 0.8306
vn 0.2190 -0.1885 0.9573
vt 0.500000 0.857143
vt 0.000000 0.000000
vt 0.000000 0.857143
vt 0.500000 0.285714
vt 1.000000 0.285714
vt 1.000000 0.428571
vt 0.500000 0.428571
vt 1.000000 0.571429
vt 0.500000 0.571429
vt 1.000000 0.714286
vt 0.500000 0.714286
vt 1.000000 0.857143
vt 0.000000 0.714286
vt 0.000000 0.571429
vt 0.000000 0.428571
vt 0.000000 0.285714
s 1
f 208/97/208 193/98/193 194/99/194
f 204/100/204 199/101/199 200/102/200 205/103/205
f 205/103/205 200/102/200 201/104/201 206/105/206
f 206/105/206 201/104/201 202/106/202 207/107/207
f 207/107/207 202/106/202 203/108/203 208/97/208
f 195/109/195 207/107/207 208/97/208 194/99/194
f 196/110/196 206/105/206 207/107/207 195/109/195
f 197/111/197 205/103/205 206/105/206 196/110/196
f 198/112/198 204/100/204 205/103/205 197/111/197
f 203/108/203 193/98/193 208/97/208
f 224/97/224 210/99/210 209/98/209
f 220/100/220 221/103/221 216/102/216 215/101/215
f 221/103/221 222/105/222 217/104/217 216/102/216
f 222/105/222 223/107/223 218/106/218 217/104/217
f 223/107/223 224/97/224 219/108/219 218/106/218
f 211/109/211 210/99/210 224/97/224 223/107/223
f 212/110/212 211/109/211 223/107/223 222/105/222
f 213/111/213 212/110/212 222/105/222 221/103/221
f 214/112/214 213/111/213 221/103/221 220/100/220
f 219/108/219 224/97/224 209/98/209
f 193/98/193 203/108/203 219/108/219 209/98/209
f 195/109/195 194/99/194 210/99/210 211/109/211
f 196/110/196 195/109/195 211/109/211 212/110/212
f 197/111/197 196/110/196 212/110/212 213/111/213
f 198/112/198 197/111/197 213/111/213 214/112/214
f 200/102/200 199/101/199 215/101/215 216/102/216
f 201/104/201 200/102/200 216/102/216 217/104/217
f 202/106/202 201/104/201 217/104/217 218/106/218
f 203/108/203 202/106/202 218/106/218 219/108/219
f 204/100/204 198/112/198 214/112/214 220/100/220
f 194/99/194 193/98/193 209/98/209 210/99/210
f 199/101/199 204/100/204 220/100/220 215/101/215
