# Blender 4.4.0
# www.blender.org
mtllib Rock1.mtl
o Icosphere
v -0.000000 -1.201210 0.000000
v 0.866226 -0.535363 0.629343
v -0.242359 -0.392158 0.745917
v -1.070502 -0.535254 0.000000
v -0.279198 -0.451767 -0.859298
v 0.676928 -0.418370 -0.491811
v 0.276857 0.447979 0.852093
v -0.754161 0.466103 0.547924
v -0.772008 0.477133 -0.560890
v 0.295177 0.477621 -0.908475
v 0.809328 0.404666 0.000000
v 0.000000 1.201609 0.000000
v -0.216043 -1.131246 0.664921
v 0.414613 -0.829235 0.301231
v 0.315052 -0.630103 0.969611
v 0.997722 -0.616634 -0.000000
v 0.516257 -1.032525 -0.375079
v -0.557178 -0.901535 0.000000
v -0.869572 -0.664301 0.631779
v -0.183792 -0.962376 -0.565663
v -0.752635 -0.574968 -0.546819
v 0.267665 -0.535330 -0.823773
v 1.320558 -0.000000 0.429070
v 0.972752 -0.000000 -0.316062
v 0.000000 0.000000 0.961718
v 0.835584 0.000000 1.150081
v -1.040124 0.000000 0.337952
v -0.660322 -0.000000 0.908854
v -0.520095 0.000000 -0.715848
v -1.379468 0.000000 -0.448211
v 0.699913 0.000000 -0.963346
v -0.000000 0.000000 -0.828978
v 0.594848 0.454430 0.432181
v -0.211787 0.423575 0.651802
v -0.756250 0.467394 -0.000000
v -0.318191 0.636382 -0.979274
v 0.804570 0.614644 -0.584552
v 0.161989 0.848663 0.498560
v 0.477805 0.787399 0.000000
v -0.436124 0.868276 0.316859
v -0.556013 1.063865 -0.403963
v 0.179774 0.924625 -0.553297
vn 0.0306 -0.9994 -0.0171
vn 0.5916 -0.6991 0.4016
vn -0.2176 -0.2631 0.9399
vn -0.8223 -0.5685 0.0233
vn -0.2370 -0.1938 -0.9520
vn 0.7250 -0.3960 -0.5635
vn 0.0587 0.6442 0.7626
vn -0.6240 0.5938 0.5079
vn -0.7559 0.3882 -0.5272
vn 0.1751 0.3181 -0.9317
vn 0.7694 0.6327 0.0883
vn 0.1584 0.9782 0.1342
vn -0.1247 -0.8193 0.5597
vn 0.4727 -0.8324 0.2894
vn 0.0844 -0.5515 0.8299
vn 0.7906 -0.5924 -0.1549
vn 0.5026 -0.7880 -0.3554
vn -0.5403 -0.8312 -0.1309
vn -0.6584 -0.4751 0.5838
vn -0.2249 -0.7730 -0.5932
vn -0.5443 -0.5412 -0.6410
vn 0.2274 -0.3939 -0.8906
vn 0.9713 0.1853 0.1495
vn 0.9296 0.0213 -0.3681
vn -0.2450 0.1111 0.9631
vn 0.4590 0.1646 0.8731
vn -0.9015 0.2135 0.3764
vn -0.4006 0.1128 0.9093
vn -0.3718 -0.0540 -0.9267
vn -0.9220 0.1087 -0.3716
vn 0.5126 -0.1235 -0.8497
vn -0.1161 -0.0822 -0.9898
vn 0.5893 0.7373 0.3304
vn -0.2034 0.5416 0.8156
vn -0.8077 0.5778 0.1173
vn -0.2419 0.3084 -0.9200
vn 0.7349 0.5852 -0.3426
vn 0.2253 0.7402 0.6335
vn 0.6539 0.7386 0.1641
vn -0.4844 0.7025 0.5214
vn -0.5567 0.7975 -0.2325
vn 0.3102 0.8296 -0.4642
vt 0.181819 0.000000
vt 0.227273 0.078731
vt 0.136365 0.078731
vt 0.272728 0.157461
vt 0.318182 0.078731
vt 0.363637 0.157461
vt 0.909091 0.000000
vt 0.954545 0.078731
vt 0.863636 0.078731
vt 0.727273 0.000000
vt 0.772727 0.078731
vt 0.681818 0.078731
vt 0.545455 0.000000
vt 0.590909 0.078731
vt 0.500000 0.078731
vt 0.318182 0.236191
vt 0.090910 0.157461
vt 0.181819 0.157461
vt 0.136365 0.236191
vt 0.818182 0.157461
vt 0.909091 0.157461
vt 0.863636 0.236191
vt 0.636364 0.157461
vt 0.727273 0.157461
vt 0.681818 0.236191
vt 0.454546 0.157461
vt 0.545455 0.157461
vt 0.500000 0.236191
vt 0.227273 0.236191
vt 0.045455 0.236191
vt 0.772727 0.236191
vt 0.590909 0.236191
vt 0.409092 0.236191
vt 0.181819 0.314921
vt 0.272728 0.314921
vt 0.227273 0.393651
vt 0.000000 0.314921
vt 0.090910 0.314921
vt 0.045455 0.393651
vt 0.727273 0.314921
vt 0.818182 0.314921
vt 0.772727 0.393651
vt 0.545455 0.314921
vt 0.636364 0.314921
vt 0.590909 0.393651
vt 0.363637 0.314921
vt 0.454546 0.314921
vt 0.409092 0.393651
vt 0.500000 0.393651
vt 0.454546 0.472382
vt 0.681818 0.393651
vt 0.636364 0.472382
vt 0.863636 0.393651
vt 0.818182 0.472382
vt 0.909091 0.314921
vt 0.136365 0.393651
vt 0.090910 0.472382
vt 0.318182 0.393651
vt 0.272728 0.472382
vt 0.954545 0.236191
vt 1.000000 0.157461
vt 0.409092 0.078731
vt 0.363637 0.000000
s 1
f 1/1/1 14/2/14 13/3/13
f 2/4/2 14/5/14 16/6/16
f 1/7/1 13/8/13 18/9/18
f 1/10/1 18/11/18 20/12/20
f 1/13/1 20/14/20 17/15/17
f 2/4/2 16/6/16 23/16/23
f 3/17/3 15/18/15 25/19/25
f 4/20/4 19/21/19 27/22/27
f 5/23/5 21/24/21 29/25/29
f 6/26/6 22/27/22 31/28/31
f 2/4/2 23/16/23 26/29/26
f 3/17/3 25/19/25 28/30/28
f 4/20/4 27/22/27 30/31/30
f 5/23/5 29/25/29 32/32/32
f 6/26/6 31/28/31 24/33/24
f 7/34/7 33/35/33 38/36/38
f 8/37/8 34/38/34 40/39/40
f 9/40/9 35/41/35 41/42/41
f 10/43/10 36/44/36 42/45/42
f 11/46/11 37/47/37 39/48/39
f 39/48/39 42/49/42 12/50/12
f 39/48/39 37/47/37 42/49/42
f 37/47/37 10/43/10 42/49/42
f 42/45/42 41/51/41 12/52/12
f 42/45/42 36/44/36 41/51/41
f 36/44/36 9/40/9 41/51/41
f 41/42/41 40/53/40 12/54/12
f 41/42/41 35/41/35 40/53/40
f 35/41/35 8/55/8 40/53/40
f 40/39/40 38/56/38 12/57/12
f 40/39/40 34/38/34 38/56/38
f 34/38/34 7/34/7 38/56/38
f 38/36/38 39/58/39 12/59/12
f 38/36/38 33/35/33 39/58/39
f 33/35/33 11/46/11 39/58/39
f 24/33/24 37/47/37 11/46/11
f 24/33/24 31/28/31 37/47/37
f 31/28/31 10/43/10 37/47/37
f 32/32/32 36/44/36 10/43/10
f 32/32/32 29/25/29 36/44/36
f 29/25/29 9/40/9 36/44/36
f 30/31/30 35/41/35 9/40/9
f 30/31/30 27/22/27 35/41/35
f 27/22/27 8/55/8 35/41/35
f 28/30/28 34/38/34 8/37/8
f 28/30/28 25/19/25 34/38/34
f 25/19/25 7/34/7 34/38/34
f 26/29/26 33/35/33 7/34/7
f 26/29/26 23/16/23 33/35/33
f 23/16/23 11/46/11 33/35/33
f 31/28/31 32/32/32 10/43/10
f 31/28/31 22/27/22 32/32/32
f 22/27/22 5/23/5 32/32/32
f 29/25/29 30/31/30 9/40/9
f 29/25/29 21/24/21 30/31/30
f 21/24/21 4/20/4 30/31/30
f 27/22/27 28/60/28 8/55/8
f 27/22/27 19/21/19 28/60/28
f 19/21/19 3/61/3 28/60/28
f 25/19/25 26/29/26 7/34/7
f 25/19/25 15/18/15 26/29/26
f 15/18/15 2/4/2 26/29/26
f 23/16/23 24/33/24 11/46/11
f 23/16/23 16/6/16 24/33/24
f 16/6/16 6/26/6 24/33/24
f 17/15/17 22/27/22 6/26/6
f 17/15/17 20/14/20 22/27/22
f 20/14/20 5/23/5 22/27/22
f 20/12/20 21/24/21 5/23/5
f 20/12/20 18/11/18 21/24/21
f 18/11/18 4/20/4 21/24/21
f 18/9/18 19/21/19 4/20/4
f 18/9/18 13/8/13 19/21/19
f 13/8/13 3/61/3 19/21/19
f 16/6/16 17/62/17 6/26/6
f 16/6/16 14/5/14 17/62/17
f 14/5/14 1/63/1 17/62/17
f 13/3/13 15/18/15 3/17/3
f 13/3/13 14/2/14 15/18/15
f 14/2/14 2/4/2 15/18/15
