# Blender 4.4.0
# www.blender.org
mtllib TripleConeDecoration.mtl
o Cone
v 0.000000 -1.000000 -1.000000
v 0.382683 -1.000000 -0.923880
v 0.707107 -1.000000 -0.707107
v 0.923880 -1.000000 -0.382683
v 1.000000 -1.000000 0.000000
v 0.923880 -1.000000 0.382683
v 0.707107 -1.000000 0.707107
v 0.382683 -1.000000 0.923880
v 0.000000 -1.000000 1.000000
v -0.382683 -1.000000 0.923880
v -0.707107 -1.000000 0.707107
v -0.923880 -1.000000 0.382683
v -1.000000 -1.000000 0.000000
v -0.923880 -1.000000 -0.382683
v -0.707107 -1.000000 -0.707107
v -0.382683 -1.000000 -0.923880
v 0.000000 1.000000 0.000000
vn 0.1752 0.4403 -0.8806
vn 0.4988 0.4403 -0.7465
vn 0.7465 0.4403 -0.4988
vn 0.8806 0.4403 -0.1752
vn 0.8806 0.4403 0.1752
vn 0.7465 0.4403 0.4988
vn 0.4988 0.4403 0.7465
vn 0.1752 0.4403 0.8806
vn -0.1752 0.4403 0.8806
vn -0.4988 0.4403 0.7465
vn -0.7465 0.4403 0.4988
vn -0.8806 0.4403 0.1752
vn -0.8806 0.4403 -0.1752
vn -0.7465 0.4403 -0.4988
vn -0.0000 -1.0000 -0.0000
vn -0.4988 0.4403 -0.7465
vn -0.1752 0.4403 -0.8806
vt 0.250000 0.490000
vt 0.250000 0.250000
vt 0.341844 0.471731
vt 0.419706 0.419706
vt 0.471731 0.341844
vt 0.490000 0.250000
vt 0.471731 0.158156
vt 0.419706 0.080294
vt 0.341844 0.028269
vt 0.250000 0.010000
vt 0.158156 0.028269
vt 0.080294 0.080294
vt 0.028269 0.158156
vt 0.010000 0.250000
vt 0.028269 0.341844
vt 0.080294 0.419706
vt 0.750000 0.490000
vt 0.841844 0.471731
vt 0.919706 0.419706
vt 0.971731 0.341844
vt 0.990000 0.250000
vt 0.971731 0.158156
vt 0.919706 0.080294
vt 0.841844 0.028269
vt 0.750000 0.010000
vt 0.658156 0.028269
vt 0.580294 0.080294
vt 0.528269 0.158156
vt 0.510000 0.250000
vt 0.528269 0.341844
vt 0.580294 0.419706
vt 0.658156 0.471731
vt 0.158156 0.471731
s 0
f 1/1/1 17/2/1 2/3/1
f 2/3/2 17/2/2 3/4/2
f 3/4/3 17/2/3 4/5/3
f 4/5/4 17/2/4 5/6/4
f 5/6/5 17/2/5 6/7/5
f 6/7/6 17/2/6 7/8/6
f 7/8/7 17/2/7 8/9/7
f 8/9/8 17/2/8 9/10/8
f 9/10/9 17/2/9 10/11/9
f 10/11/10 17/2/10 11/12/10
f 11/12/11 17/2/11 12/13/11
f 12/13/12 17/2/12 13/14/12
f 13/14/13 17/2/13 14/15/13
f 14/15/14 17/2/14 15/16/14
f 1/17/15 2/18/15 3/19/15 4/20/15 5/21/15 6/22/15 7/23/15 8/24/15 9/25/15 10/26/15 11/27/15 12/28/15 13/29/15 14/30/15 15/31/15 16/32/15
f 15/16/16 17/2/16 16/33/16
f 16/33/17 17/2/17 1/1/17
o Cone.001
v 0.000000 0.930017 0.466399
v 0.178483 0.930017 0.430897
v 0.329794 0.930017 0.329794
v 0.430897 0.930017 0.178483
v 0.466399 0.930017 -0.000000
v 0.430897 0.930017 -0.178484
v 0.329794 0.930017 -0.329794
v 0.178483 0.930017 -0.430897
v -0.000000 0.930017 -0.466400
v -0.178483 0.930017 -0.430897
v -0.329794 0.930017 -0.329794
v -0.430897 0.930017 -0.178484
v -0.466399 0.930017 -0.000000
v -0.430897 0.930017 0.178483
v -0.329794 0.930017 0.329794
v -0.178483 0.930017 0.430897
v 0.000000 -0.002782 0.000000
vn 0.1752 -0.4403 0.8806
vn 0.4988 -0.4403 0.7465
vn 0.7465 -0.4403 0.4988
vn 0.8806 -0.4403 0.1752
vn 0.8806 -0.4403 -0.1752
vn 0.7465 -0.4403 -0.4988
vn 0.4988 -0.4403 -0.7465
vn 0.1752 -0.4403 -0.8806
vn -0.1752 -0.4403 -0.8806
vn -0.4988 -0.4403 -0.7465
vn -0.7465 -0.4403 -0.4988
vn -0.8806 -0.4403 -0.1752
vn -0.8806 -0.4403 0.1752
vn -0.7465 -0.4403 0.4988
vn -0.0000 1.0000 -0.0000
vn -0.4988 -0.4403 0.7465
vn -0.1752 -0.4403 0.8806
vt 0.250000 0.490000
vt 0.250000 0.250000
vt 0.341844 0.471731
vt 0.419706 0.419706
vt 0.471731 0.341844
vt 0.490000 0.250000
vt 0.471731 0.158156
vt 0.419706 0.080294
vt 0.341844 0.028269
vt 0.250000 0.010000
vt 0.158156 0.028269
vt 0.080294 0.080294
vt 0.028269 0.158156
vt 0.010000 0.250000
vt 0.028269 0.341844
vt 0.080294 0.419706
vt 0.750000 0.490000
vt 0.841844 0.471731
vt 0.919706 0.419706
vt 0.971731 0.341844
vt 0.990000 0.250000
vt 0.971731 0.158156
vt 0.919706 0.080294
vt 0.841844 0.028269
vt 0.750000 0.010000
vt 0.658156 0.028269
vt 0.580294 0.080294
vt 0.528269 0.158156
vt 0.510000 0.250000
vt 0.528269 0.341844
vt 0.580294 0.419706
vt 0.658156 0.471731
vt 0.158156 0.471731
s 0
f 18/34/18 34/35/18 19/36/18
f 19/36/19 34/35/19 20/37/19
f 20/37/20 34/35/20 21/38/20
f 21/38/21 34/35/21 22/39/21
f 22/39/22 34/35/22 23/40/22
f 23/40/23 34/35/23 24/41/23
f 24/41/24 34/35/24 25/42/24
f 25/42/25 34/35/25 26/43/25
f 26/43/26 34/35/26 27/44/26
f 27/44/27 34/35/27 28/45/27
f 28/45/28 34/35/28 29/46/28
f 29/46/29 34/35/29 30/47/29
f 30/47/30 34/35/30 31/48/30
f 31/48/31 34/35/31 32/49/31
f 18/50/32 19/51/32 20/52/32 21/53/32 22/54/32 23/55/32 24/56/32 25/57/32 26/58/32 27/59/32 28/60/32 29/61/32 30/62/32 31/63/32 32/64/32 33/65/32
f 32/49/33 34/35/33 33/66/33
f 33/66/34 34/35/34 18/34/34
o Cone.002
v 0.000000 0.929989 -0.466399
v 0.178483 0.929989 -0.430897
v 0.329794 0.929989 -0.329794
v 0.430897 0.929989 -0.178483
v 0.466399 0.929989 0.000000
v 0.430897 0.929989 0.178484
v 0.329794 0.929989 0.329794
v 0.178483 0.929989 0.430897
v 0.000000 0.929990 0.466400
v -0.178483 0.929989 0.430897
v -0.329794 0.929989 0.329794
v -0.430897 0.929989 0.178484
v -0.466399 0.929989 0.000000
v -0.430897 0.929989 -0.178483
v -0.329794 0.929989 -0.329794
v -0.178483 0.929989 -0.430897
v -0.000000 1.862788 -0.000000
vn 0.1752 0.4403 -0.8806
vn 0.4988 0.4403 -0.7465
vn 0.7465 0.4403 -0.4988
vn 0.8806 0.4403 -0.1752
vn 0.8806 0.4403 0.1752
vn 0.7465 0.4403 0.4988
vn 0.4988 0.4403 0.7465
vn 0.1752 0.4403 0.8806
vn -0.1752 0.4403 0.8806
vn -0.4988 0.4403 0.7465
vn -0.7465 0.4403 0.4988
vn -0.8806 0.4403 0.1752
vn -0.8806 0.4403 -0.1752
vn -0.7465 0.4403 -0.4988
vn -0.0000 -1.0000 -0.0000
vn -0.4988 0.4403 -0.7465
vn -0.1752 0.4403 -0.8806
vt 0.250000 0.490000
vt 0.250000 0.250000
vt 0.341844 0.471731
vt 0.419706 0.419706
vt 0.471731 0.341844
vt 0.490000 0.250000
vt 0.471731 0.158156
vt 0.419706 0.080294
vt 0.341844 0.028269
vt 0.250000 0.010000
vt 0.158156 0.028269
vt 0.080294 0.080294
vt 0.028269 0.158156
vt 0.010000 0.250000
vt 0.028269 0.341844
vt 0.080294 0.419706
vt 0.750000 0.490000
vt 0.841844 0.471731
vt 0.919706 0.419706
vt 0.971731 0.341844
vt 0.990000 0.250000
vt 0.971731 0.158156
vt 0.919706 0.080294
vt 0.841844 0.028269
vt 0.750000 0.010000
vt 0.658156 0.028269
vt 0.580294 0.080294
vt 0.528269 0.158156
vt 0.510000 0.250000
vt 0.528269 0.341844
vt 0.580294 0.419706
vt 0.658156 0.471731
vt 0.158156 0.471731
s 0
f 35/67/35 51/68/35 36/69/35
f 36/69/36 51/68/36 37/70/36
f 37/70/37 51/68/37 38/71/37
f 38/71/38 51/68/38 39/72/38
f 39/72/39 51/68/39 40/73/39
f 40/73/40 51/68/40 41/74/40
f 41/74/41 51/68/41 42/75/41
f 42/75/42 51/68/42 43/76/42
f 43/76/43 51/68/43 44/77/43
f 44/77/44 51/68/44 45/78/44
f 45/78/45 51/68/45 46/79/45
f 46/79/46 51/68/46 47/80/46
f 47/80/47 51/68/47 48/81/47
f 48/81/48 51/68/48 49/82/48
f 35/83/49 36/84/49 37/85/49 38/86/49 39/87/49 40/88/49 41/89/49 42/90/49 43/91/49 44/92/49 45/93/49 46/94/49 47/95/49 48/96/49 49/97/49 50/98/49
f 49/82/50 51/68/50 50/99/50
f 50/99/51 51/68/51 35/67/51
