# Blender 4.4.0
# www.blender.org
mtllib TriplePyramidDecoration.mtl
o Cube
v 0.000000 1.000000 0.000000
v 1.000000 -1.000000 -1.000000
v 1.000000 -1.000000 1.000000
v -1.000000 -1.000000 -1.000000
v -1.000000 -1.000000 1.000000
vn -0.0000 0.4472 0.8944
vn -0.8944 0.4472 -0.0000
vn -0.0000 -1.0000 -0.0000
vn 0.8944 0.4472 -0.0000
vn -0.0000 0.4472 -0.8944
vt 0.375000 0.750000
vt 0.625000 1.000000
vt 0.375000 1.000000
vt 0.375000 0.000000
vt 0.625000 0.250000
vt 0.375000 0.250000
vt 0.125000 0.500000
vt 0.375000 0.500000
vt 0.125000 0.750000
vt 0.625000 0.750000
vt 0.625000 0.500000
s 0
usemtl Material
f 3/1/1 1/2/1 5/3/1
f 5/4/2 1/5/2 4/6/2
f 4/7/3 2/8/3 3/1/3 5/9/3
f 2/8/4 1/10/4 3/1/4
f 4/6/5 1/11/5 2/8/5
o Cube.001
v 0.000000 0.305066 0.000000
v 0.420419 1.145905 0.420419
v 0.420419 1.145905 -0.420419
v -0.420419 1.145905 0.420419
v -0.420419 1.145905 -0.420419
vn -0.0000 -0.4472 -0.8944
vn -0.8944 -0.4472 -0.0000
vn -0.0000 1.0000 -0.0000
vn 0.8944 -0.4472 -0.0000
vn -0.0000 -0.4472 0.8944
vt 0.375000 0.750000
vt 0.625000 1.000000
vt 0.375000 1.000000
vt 0.375000 0.000000
vt 0.625000 0.250000
vt 0.375000 0.250000
vt 0.125000 0.500000
vt 0.375000 0.500000
vt 0.125000 0.750000
vt 0.625000 0.750000
vt 0.625000 0.500000
s 0
usemtl Material
f 8/12/6 6/13/6 10/14/6
f 10/15/7 6/16/7 9/17/7
f 9/18/8 7/19/8 8/12/8 10/20/8
f 7/19/9 6/21/9 8/12/9
f 9/17/10 6/22/10 7/19/10
o Cube.002
v -0.000000 1.986743 -0.000000
v 0.420419 1.145905 -0.420419
v 0.420419 1.145905 0.420420
v -0.420419 1.145905 -0.420419
v -0.420419 1.145905 0.420420
vn -0.0000 0.4472 0.8944
vn -0.8944 0.4472 -0.0000
vn -0.0000 -1.0000 -0.0000
vn 0.8944 0.4472 -0.0000
vn -0.0000 0.4472 -0.8944
vt 0.375000 0.750000
vt 0.625000 1.000000
vt 0.375000 1.000000
vt 0.375000 0.000000
vt 0.625000 0.250000
vt 0.375000 0.250000
vt 0.125000 0.500000
vt 0.375000 0.500000
vt 0.125000 0.750000
vt 0.625000 0.750000
vt 0.625000 0.500000
s 0
usemtl Material
f 13/23/11 11/24/11 15/25/11
f 15/26/12 11/27/12 14/28/12
f 14/29/13 12/30/13 13/23/13 15/31/13
f 12/30/14 11/32/14 13/23/14
f 14/28/15 11/33/15 12/30/15
